<svg width="153" height="52" viewBox="0 0 153 52" fill="none" xmlns="http://www.w3.org/2000/svg">
<rect width="153" height="52" rx="10" fill="#CACACA"/>
<path d="M30.2273 21.1598C30.1273 21.3348 30.019 21.4639 29.9023 21.5473C29.794 21.6223 29.6565 21.6598 29.4898 21.6598C29.3148 21.6598 29.1232 21.5973 28.9148 21.4723C28.7148 21.3389 28.4732 21.1931 28.1898 21.0348C27.9065 20.8764 27.5732 20.7348 27.1898 20.6098C26.8148 20.4764 26.369 20.4098 25.8523 20.4098C25.3857 20.4098 24.9773 20.4681 24.6273 20.5848C24.2773 20.6931 23.9815 20.8473 23.7398 21.0473C23.5065 21.2473 23.3315 21.4889 23.2148 21.7723C23.0982 22.0473 23.0398 22.3514 23.0398 22.6848C23.0398 23.1098 23.1565 23.4639 23.3898 23.7473C23.6315 24.0306 23.9482 24.2723 24.3398 24.4723C24.7315 24.6723 25.1773 24.8514 25.6773 25.0098C26.1773 25.1681 26.6898 25.3389 27.2148 25.5223C27.7398 25.6973 28.2523 25.9056 28.7523 26.1473C29.2523 26.3806 29.6982 26.6806 30.0898 27.0473C30.4815 27.4056 30.794 27.8473 31.0273 28.3723C31.269 28.8973 31.3898 29.5348 31.3898 30.2848C31.3898 31.1014 31.2482 31.8681 30.9648 32.5848C30.6898 33.2931 30.2815 33.9139 29.7398 34.4473C29.2065 34.9723 28.5523 35.3889 27.7773 35.6973C27.0023 35.9973 26.1148 36.1473 25.1148 36.1473C24.5398 36.1473 23.9732 36.0889 23.4148 35.9723C22.8565 35.8639 22.319 35.7056 21.8023 35.4973C21.294 35.2889 20.8148 35.0389 20.3648 34.7473C19.9148 34.4556 19.5148 34.1306 19.1648 33.7723L20.1523 32.1598C20.2357 32.0431 20.344 31.9473 20.4773 31.8723C20.6107 31.7889 20.7523 31.7473 20.9023 31.7473C21.1107 31.7473 21.3357 31.8348 21.5773 32.0098C21.819 32.1764 22.1065 32.3639 22.4398 32.5723C22.7732 32.7806 23.1607 32.9723 23.6023 33.1473C24.0523 33.3139 24.5898 33.3973 25.2148 33.3973C26.1732 33.3973 26.9148 33.1723 27.4398 32.7223C27.9648 32.2639 28.2273 31.6098 28.2273 30.7598C28.2273 30.2848 28.1065 29.8973 27.8648 29.5973C27.6315 29.2973 27.319 29.0473 26.9273 28.8473C26.5357 28.6389 26.0898 28.4639 25.5898 28.3223C25.0898 28.1806 24.5815 28.0264 24.0648 27.8598C23.5482 27.6931 23.0398 27.4931 22.5398 27.2598C22.0398 27.0264 21.594 26.7223 21.2023 26.3473C20.8107 25.9723 20.494 25.5056 20.2523 24.9473C20.019 24.3806 19.9023 23.6848 19.9023 22.8598C19.9023 22.2014 20.0315 21.5598 20.2898 20.9348C20.5565 20.3098 20.9398 19.7556 21.4398 19.2723C21.9398 18.7889 22.5565 18.4014 23.2898 18.1098C24.0232 17.8181 24.8648 17.6723 25.8148 17.6723C26.8815 17.6723 27.8648 17.8389 28.7648 18.1723C29.6648 18.5056 30.4315 18.9723 31.0648 19.5723L30.2273 21.1598ZM40.198 35.9473H36.823V17.8723H40.198V35.9473ZM61.6449 26.8848V34.1973C60.7283 34.8723 59.7491 35.3681 58.7074 35.6848C57.6741 35.9931 56.5658 36.1473 55.3824 36.1473C53.9074 36.1473 52.5699 35.9181 51.3699 35.4598C50.1783 35.0014 49.1574 34.3639 48.3074 33.5473C47.4658 32.7306 46.8158 31.7556 46.3574 30.6223C45.8991 29.4889 45.6699 28.2514 45.6699 26.9098C45.6699 25.5514 45.8908 24.3056 46.3324 23.1723C46.7741 22.0389 47.3991 21.0639 48.2074 20.2473C49.0241 19.4306 50.0116 18.7973 51.1699 18.3473C52.3283 17.8973 53.6283 17.6723 55.0699 17.6723C55.8033 17.6723 56.4866 17.7306 57.1199 17.8473C57.7616 17.9639 58.3533 18.1264 58.8949 18.3348C59.4449 18.5348 59.9449 18.7806 60.3949 19.0723C60.8449 19.3639 61.2574 19.6848 61.6324 20.0348L60.6699 21.5598C60.5199 21.8014 60.3241 21.9514 60.0824 22.0098C59.8408 22.0598 59.5783 21.9973 59.2949 21.8223C59.0199 21.6639 58.7449 21.5056 58.4699 21.3473C58.1949 21.1889 57.8866 21.0514 57.5449 20.9348C57.2116 20.8181 56.8324 20.7223 56.4074 20.6473C55.9908 20.5723 55.5074 20.5348 54.9574 20.5348C54.0658 20.5348 53.2574 20.6848 52.5324 20.9848C51.8158 21.2848 51.2033 21.7139 50.6949 22.2723C50.1866 22.8306 49.7949 23.5014 49.5199 24.2848C49.2449 25.0681 49.1074 25.9431 49.1074 26.9098C49.1074 27.9431 49.2533 28.8681 49.5449 29.6848C49.8449 30.4931 50.2616 31.1806 50.7949 31.7473C51.3366 32.3056 51.9866 32.7348 52.7449 33.0348C53.5033 33.3264 54.3491 33.4723 55.2824 33.4723C55.9491 33.4723 56.5449 33.4014 57.0699 33.2598C57.5949 33.1181 58.1074 32.9264 58.6074 32.6848V29.4098H56.3324C56.1158 29.4098 55.9449 29.3514 55.8199 29.2348C55.7033 29.1098 55.6449 28.9598 55.6449 28.7848V26.8848H61.6449ZM82.6221 17.8723V35.9473H80.8971C80.6304 35.9473 80.4054 35.9056 80.2221 35.8223C80.0471 35.7306 79.8762 35.5806 79.7096 35.3723L70.2721 23.3223C70.3221 23.8723 70.3471 24.3806 70.3471 24.8473V35.9473H67.3846V17.8723H69.1471C69.2887 17.8723 69.4096 17.8806 69.5096 17.8973C69.6179 17.9056 69.7096 17.9306 69.7846 17.9723C69.8679 18.0056 69.9471 18.0598 70.0221 18.1348C70.0971 18.2014 70.1804 18.2931 70.2721 18.4098L79.7471 30.5098C79.7221 30.2181 79.7012 29.9306 79.6846 29.6473C79.6679 29.3639 79.6596 29.1014 79.6596 28.8598V17.8723H82.6221ZM105.001 33.2348C105.651 33.2348 106.231 33.1264 106.739 32.9098C107.256 32.6931 107.689 32.3889 108.039 31.9973C108.389 31.6056 108.656 31.1306 108.839 30.5723C109.031 30.0139 109.126 29.3889 109.126 28.6973V17.8723H112.489V28.6973C112.489 29.7723 112.314 30.7681 111.964 31.6848C111.622 32.5931 111.126 33.3806 110.476 34.0473C109.835 34.7056 109.051 35.2223 108.126 35.5973C107.201 35.9639 106.16 36.1473 105.001 36.1473C103.835 36.1473 102.789 35.9639 101.864 35.5973C100.939 35.2223 100.151 34.7056 99.5014 34.0473C98.8597 33.3806 98.3639 32.5931 98.0139 31.6848C97.6722 30.7681 97.5014 29.7723 97.5014 28.6973V17.8723H100.864V28.6848C100.864 29.3764 100.956 30.0014 101.139 30.5598C101.331 31.1181 101.601 31.5973 101.951 31.9973C102.31 32.3889 102.743 32.6931 103.251 32.9098C103.768 33.1264 104.351 33.2348 105.001 33.2348ZM124.656 26.9598C125.273 26.9598 125.81 26.8848 126.269 26.7348C126.727 26.5764 127.106 26.3556 127.406 26.0723C127.714 25.7806 127.944 25.4306 128.094 25.0223C128.244 24.6056 128.319 24.1431 128.319 23.6348C128.319 23.1514 128.244 22.7139 128.094 22.3223C127.944 21.9306 127.719 21.5973 127.419 21.3223C127.119 21.0473 126.739 20.8389 126.281 20.6973C125.823 20.5473 125.281 20.4723 124.656 20.4723H122.144V26.9598H124.656ZM124.656 17.8723C125.864 17.8723 126.91 18.0139 127.794 18.2973C128.677 18.5806 129.406 18.9764 129.981 19.4848C130.556 19.9931 130.981 20.6014 131.256 21.3098C131.539 22.0181 131.681 22.7931 131.681 23.6348C131.681 24.5098 131.535 25.3139 131.244 26.0473C130.952 26.7723 130.514 27.3973 129.931 27.9223C129.348 28.4473 128.614 28.8556 127.731 29.1473C126.856 29.4389 125.831 29.5848 124.656 29.5848H122.144V35.9473H118.781V17.8723H124.656Z" fill="white"/>
</svg>
