<svg width="300" height="300" viewBox="0 0 300 300" fill="none" xmlns="http://www.w3.org/2000/svg">
<path d="M300 150C300 232.843 232.843 300 150 300C67.1573 300 0 232.843 0 150C0 67.1573 67.1573 0 150 0C232.843 0 300 67.1573 300 150Z" fill="url(#paint0_radial_4023_76909)"/>
<circle cx="149.988" cy="40.9093" r="10.1364" fill="#25AAE2" fill-opacity="0.15" stroke="white" stroke-width="7"/>
<circle cx="77.2809" cy="113.636" r="10.1364" fill="#25AAE2" fill-opacity="0.15" stroke="white" stroke-width="7"/>
<circle cx="222.726" cy="113.636" r="10.1364" fill="#25AAE2" fill-opacity="0.52" stroke="white" stroke-width="7"/>
<circle cx="77.2809" cy="186.364" r="10.1364" fill="#6FC7EC" stroke="white" stroke-width="7"/>
<path d="M159.773 258.636C159.773 264.235 155.235 268.773 149.636 268.773C144.038 268.773 139.5 264.235 139.5 258.636C139.5 253.038 144.038 248.5 149.636 248.5C155.235 248.5 159.773 253.038 159.773 258.636Z" fill="#25AAE2" stroke="white" stroke-width="7"/>
<circle cx="149.988" cy="186.364" r="10.1364" fill="#25AAE2" fill-opacity="0.28" stroke="white" stroke-width="7"/>
<circle cx="222.636" cy="186.636" r="10.1364" fill="#25AAE2" stroke="white" stroke-width="7"/>
<circle cx="149.988" cy="113.636" r="10.1364" fill="#25AAE2" fill-opacity="0.15" stroke="white" stroke-width="7"/>
<path d="M86.3789 104.545L140.924 50" stroke="white" stroke-width="7"/>
<path d="M86.3789 104.545L140.924 50" stroke="white" stroke-width="7"/>
<path d="M159.086 50L213.631 104.545" stroke="white" stroke-width="7"/>
<path d="M213.631 122.727L159.086 177.273" stroke="white" stroke-width="7"/>
<path d="M140.924 122.727L86.3789 177.273" stroke="white" stroke-width="7"/>
<path d="M81.8281 195.455L143 253" stroke="white" stroke-width="7"/>
<path d="M157.5 252L218.177 195.455" stroke="white" stroke-width="7"/>
<defs>
<radialGradient id="paint0_radial_4023_76909" cx="0" cy="0" r="1" gradientUnits="userSpaceOnUse" gradientTransform="translate(253.256 255.349) rotate(-131.754) scale(331.062)">
<stop stop-color="#25AAE2"/>
<stop offset="1" stop-color="#25AAE2" stop-opacity="0.24"/>
</radialGradient>
</defs>
</svg>
