<svg width="236" height="52" viewBox="0 0 236 52" fill="none" xmlns="http://www.w3.org/2000/svg">
<path d="M230.223 34.2894C229.583 35.7837 228.792 37.2087 227.863 38.542C226.622 40.3176 225.603 41.5446 224.821 42.2275C223.608 43.3433 222.304 43.9174 220.91 43.9498C219.912 43.9498 218.705 43.6651 217.3 43.0863C215.89 42.5099 214.595 42.2275 213.41 42.2275C212.168 42.2275 210.837 42.5099 209.411 43.0863C207.987 43.6651 206.836 43.9683 205.955 43.9961C204.621 44.054 203.288 43.466 201.958 42.2275C201.11 41.4867 200.049 40.2134 198.776 38.4124C197.412 36.4933 196.291 34.2593 195.412 31.7198C194.472 28.9719 194 26.3143 194 23.7401C194 20.7931 194.636 18.249 195.909 16.1192C196.873 14.4465 198.25 13.0505 199.908 12.0657C201.543 11.0833 203.41 10.5544 205.317 10.5331C206.38 10.5331 207.774 10.8619 209.501 11.5101C211.228 12.1583 212.337 12.487 212.82 12.487C213.185 12.487 214.413 12.1004 216.502 11.3341C218.474 10.6234 220.138 10.3294 221.502 10.4452C225.2 10.7438 227.977 12.2022 229.823 14.832C226.518 16.8391 224.884 19.6472 224.916 23.2516C224.944 26.0597 225.963 28.3955 227.96 30.2498C228.843 31.096 229.874 31.7731 231 32.2476C230.755 32.9583 230.496 33.6366 230.223 34.2894V34.2894ZM221.747 0.882006C221.747 3.08123 220.943 5.13693 219.345 7.03753C217.413 9.29694 215.078 10.6049 212.547 10.3989C212.514 10.1223 212.498 9.84401 212.499 9.56548C212.499 7.45191 213.414 5.19249 215.048 3.34283C215.862 2.40758 216.898 1.62743 218.153 1.00701C219.406 0.395861 220.589 0.0578744 221.703 0C221.733 0.296317 221.747 0.590319 221.747 0.882006V0.882006Z" fill="black"/>
<path fill-rule="evenodd" clip-rule="evenodd" d="M95 28.1228C95 39.0605 102.944 48.1557 113.333 50V34.1105H107.833V28H113.333V23.1105C113.333 17.6105 116.877 14.5562 121.89 14.5562C123.477 14.5562 125.19 14.8 126.777 15.0438V20.6667H123.967C121.277 20.6667 120.667 22.0105 120.667 23.7228V28H126.533L125.556 34.1105H120.667V50C131.056 48.1557 139 39.0623 139 28.1228C139 15.955 129.1 6 117 6C104.9 6 95 15.955 95 28.1228Z" fill="#1877F2"/>
<path d="M43.611 24.083H42V24H24V32H35.303C33.654 36.657 29.223 40 24 40C17.373 40 12 34.627 12 28C12 21.373 17.373 16 24 16C27.059 16 29.842 17.154 31.961 19.039L37.618 13.382C34.046 10.053 29.268 8 24 8C12.955 8 4 16.955 4 28C4 39.045 12.955 48 24 48C35.045 48 44 39.045 44 28C44 26.659 43.862 25.35 43.611 24.083Z" fill="#FFC107"/>
<path d="M6.30469 18.691L12.8757 23.51C14.6537 19.108 18.9597 16 23.9987 16C27.0577 16 29.8407 17.154 31.9597 19.039L37.6167 13.382C34.0447 10.053 29.2667 8 23.9987 8C16.3167 8 9.65469 12.337 6.30469 18.691Z" fill="#FF3D00"/>
<path d="M24.0003 47.9997C29.1663 47.9997 33.8603 46.0227 37.4093 42.8077L31.2193 37.5697C29.1439 39.1481 26.6078 40.0018 24.0003 39.9997C18.7983 39.9997 14.3813 36.6827 12.7173 32.0537L6.19531 37.0787C9.50531 43.5557 16.2273 47.9997 24.0003 47.9997Z" fill="#4CAF50"/>
<path d="M43.611 24.083H42V24H24V32H35.303C34.5142 34.2164 33.0934 36.1532 31.216 37.571L31.219 37.569L37.409 42.807C36.971 43.205 44 38 44 28C44 26.659 43.862 25.35 43.611 24.083Z" fill="#1976D2"/>
</svg>
