<svg width="164" height="158" viewBox="0 0 164 158" fill="none" xmlns="http://www.w3.org/2000/svg">
<path d="M164 79C164 122.631 127.287 158 82 158C36.7126 158 0 122.631 0 79C0 35.3695 36.7126 0 82 0C127.287 0 164 35.3695 164 79Z" fill="url(#paint0_radial_5136_57305)"/>
<path d="M85.9482 21.5456C85.9482 23.4572 84.3017 25.2274 81.9936 25.2274C79.6855 25.2274 78.0391 23.4572 78.0391 21.5456C78.0391 19.634 79.6855 17.8638 81.9936 17.8638C84.3017 17.8638 85.9482 19.634 85.9482 21.5456Z" fill="#25AAE2" stroke="white" stroke-width="7"/>
<path d="M46.2021 59.8483C46.2021 61.7599 44.5556 63.5301 42.2475 63.5301C39.9394 63.5301 38.293 61.7599 38.293 59.8483C38.293 57.9367 39.9394 56.1665 42.2475 56.1665C44.5556 56.1665 46.2021 57.9367 46.2021 59.8483Z" fill="#25AAE2" stroke="white" stroke-width="7"/>
<path d="M125.714 59.8483C125.714 61.7599 124.067 63.5301 121.759 63.5301C119.451 63.5301 117.805 61.7599 117.805 59.8483C117.805 57.9367 119.451 56.1665 121.759 56.1665C124.067 56.1665 125.714 57.9367 125.714 59.8483Z" fill="#25AAE2" fill-opacity="0.52" stroke="white" stroke-width="7"/>
<path d="M46.2021 98.1515C46.2021 100.063 44.5556 101.833 42.2475 101.833C39.9394 101.833 38.293 100.063 38.293 98.1515C38.293 96.2399 39.9394 94.4697 42.2475 94.4697C44.5556 94.4697 46.2021 96.2399 46.2021 98.1515Z" fill="#6FC7EC" stroke="white" stroke-width="7"/>
<path d="M85.7567 136.216C85.7567 138.127 84.1103 139.897 81.8022 139.897C79.4941 139.897 77.8477 138.127 77.8477 136.216C77.8477 134.304 79.4941 132.534 81.8022 132.534C84.1103 132.534 85.7567 134.304 85.7567 136.216Z" fill="#25AAE2" stroke="white" stroke-width="7"/>
<path d="M85.9482 98.1515C85.9482 100.063 84.3017 101.833 81.9936 101.833C79.6855 101.833 78.0391 100.063 78.0391 98.1515C78.0391 96.2399 79.6855 94.4697 81.9936 94.4697C84.3017 94.4697 85.9482 96.2399 85.9482 98.1515Z" fill="#25AAE2" fill-opacity="0.28" stroke="white" stroke-width="7"/>
<path d="M125.663 98.2951C125.663 100.207 124.017 101.977 121.708 101.977C119.4 101.977 117.754 100.207 117.754 98.2951C117.754 96.3835 119.4 94.6133 121.708 94.6133C124.017 94.6133 125.663 96.3835 125.663 98.2951Z" fill="#25AAE2" stroke="white" stroke-width="7"/>
<path d="M85.9482 59.8483C85.9482 61.7599 84.3017 63.5301 81.9936 63.5301C79.6855 63.5301 78.0391 61.7599 78.0391 59.8483C78.0391 57.9367 79.6855 56.1665 81.9936 56.1665C84.3017 56.1665 85.9482 57.9367 85.9482 59.8483Z" fill="#25AAE2" stroke="white" stroke-width="7"/>
<path d="M47.2188 55.0608L77.0369 26.3335" stroke="white" stroke-width="7"/>
<path d="M47.2188 55.0608L77.0369 26.3335" stroke="white" stroke-width="7"/>
<path d="M86.9688 26.3335L116.787 55.0608" stroke="white" stroke-width="7"/>
<path d="M116.787 64.6362L86.9688 93.3635" stroke="white" stroke-width="7"/>
<path d="M77.0369 64.6362L47.2188 93.3635" stroke="white" stroke-width="7"/>
<path d="M44.7305 102.939L78.1711 133.247" stroke="white" stroke-width="7"/>
<path d="M86.1016 132.72L119.272 102.939" stroke="white" stroke-width="7"/>
<defs>
<radialGradient id="paint0_radial_5136_57305" cx="0" cy="0" r="1" gradientUnits="userSpaceOnUse" gradientTransform="translate(138.447 134.484) rotate(-132.817) scale(177.326 177.953)">
<stop stop-color="#25AAE2"/>
<stop offset="1" stop-color="#25AAE2" stop-opacity="0.24"/>
</radialGradient>
</defs>
</svg>
