<svg width="42" height="41" viewBox="0 0 42 41" fill="none" xmlns="http://www.w3.org/2000/svg">
<path d="M30.6411 26.267C33.093 22.9111 34.1911 18.7504 33.7159 14.6173C33.2407 10.4842 31.2271 6.68344 28.078 3.97549C24.9289 1.26753 20.8765 -0.147941 16.7316 0.0122522C12.5866 0.172445 8.65486 1.89649 5.72283 4.83947C2.79081 7.78245 1.07476 11.7273 0.918016 15.8849C0.761271 20.0424 2.17538 24.106 4.87744 27.2627C7.5795 30.4194 11.3702 32.4363 15.4913 32.91C19.6123 33.3837 23.7597 32.2793 27.1037 29.8176H27.1011C27.1771 29.9192 27.2581 30.0157 27.3493 30.1097L37.0981 39.8879C37.5729 40.3645 38.217 40.6323 38.8887 40.6326C39.5604 40.6328 40.2047 40.3654 40.6798 39.8892C41.155 39.4129 41.422 38.7669 41.4223 38.0932C41.4225 37.4194 41.1559 36.7732 40.6811 36.2966L30.9323 26.5184C30.8418 26.4265 30.7444 26.3416 30.6411 26.2644V26.267ZM31.2944 16.504C31.2944 18.3384 30.9342 20.1549 30.2343 21.8496C29.5344 23.5444 28.5085 25.0844 27.2153 26.3815C25.9221 27.6786 24.3868 28.7076 22.6971 29.4096C21.0074 30.1116 19.1964 30.4729 17.3675 30.4729C15.5386 30.4729 13.7276 30.1116 12.038 29.4096C10.3483 28.7076 8.81299 27.6786 7.51976 26.3815C6.22653 25.0844 5.20069 23.5444 4.5008 21.8496C3.80091 20.1549 3.44068 18.3384 3.44068 16.504C3.44068 12.7992 4.90797 9.24616 7.51976 6.62649C10.1316 4.00681 13.6739 2.53509 17.3675 2.53509C21.0612 2.53509 24.6035 4.00681 27.2153 6.62649C29.8271 9.24616 31.2944 12.7992 31.2944 16.504Z" fill="black" fill-opacity="0.3"/>
</svg>
