<svg width="62" height="59" viewBox="0 0 62 59" fill="none" xmlns="http://www.w3.org/2000/svg">
<ellipse cx="31.125" cy="29.5" rx="30.5" ry="29.5" fill="#1294F2"/>
<path fill-rule="evenodd" clip-rule="evenodd" d="M21.1172 28.1172C21.1172 23.5415 24.9645 19.8203 29.6953 19.8203C34.4261 19.8203 38.2734 23.5415 38.2734 28.1172C38.2734 32.6929 34.4261 36.4141 29.6953 36.4141C24.9645 36.4141 21.1172 32.6929 21.1172 28.1172M43.5733 39.5849L38.7195 34.8888C40.225 33.0165 41.1328 30.6699 41.1328 28.1172C41.1328 22.0176 36.0017 17.0547 29.6953 17.0547C23.389 17.0547 18.2578 22.0176 18.2578 28.1172C18.2578 34.2168 23.389 39.1797 29.6953 39.1797C32.3345 39.1797 34.7607 38.3016 36.6965 36.8455L41.5517 41.5401C41.8305 41.8098 42.1965 41.9453 42.5625 41.9453C42.9285 41.9453 43.2945 41.8098 43.5733 41.5401C44.1323 40.9995 44.1323 40.1255 43.5733 39.5849" fill="#FBFBFB"/>
</svg>
