<svg width="1440" height="1000" viewBox="0 0 1440 1000" fill="none" xmlns="http://www.w3.org/2000/svg">
<g opacity="0.5" clip-path="url(#clip0_4023_63847)">
<g opacity="0.8">
<path d="M219.849 -24.7234C218.582 -26.533 216.088 -26.9728 214.278 -25.7057C212.468 -24.4386 212.029 -21.9444 213.296 -20.1348L346.939 170.728C348.206 172.537 350.7 172.977 352.51 171.71C354.32 170.443 354.759 167.949 353.492 166.139L219.849 -24.7234Z" fill="url(#paint0_linear_4023_63847)"/>
<path d="M590.635 -43.5425C589.684 -44.8998 587.814 -45.2296 586.457 -44.2793C585.099 -43.3289 584.77 -41.4583 585.72 -40.1011L686.096 103.251C687.046 104.608 688.917 104.938 690.274 103.987C691.631 103.037 691.961 101.166 691.011 99.8091L590.635 -43.5425Z" fill="url(#paint1_linear_4023_63847)"/>
<path d="M896.956 118.686C895.531 116.65 892.725 116.156 890.689 117.581C888.653 119.007 888.158 121.813 889.584 123.848L924.572 173.817C925.997 175.852 928.803 176.347 930.839 174.922C932.875 173.496 933.37 170.69 931.944 168.654L896.956 118.686Z" fill="url(#paint2_linear_4023_63847)"/>
<path d="M261.178 -34.7127C256.426 -41.4988 247.073 -43.148 240.287 -38.3964C233.501 -33.6447 231.852 -24.2915 236.603 -17.5054L448.827 285.581C453.578 292.367 462.931 294.016 469.718 289.264C476.504 284.513 478.153 275.16 473.401 268.374L261.178 -34.7127Z" fill="url(#paint3_linear_4023_63847)"/>
<path d="M305.293 -147.785C301.729 -152.874 294.714 -154.111 289.624 -150.547L289.215 -150.26C284.125 -146.697 282.888 -139.682 286.452 -134.592L445.62 92.7224C449.183 97.812 456.198 99.0489 461.288 95.4851L461.697 95.1984C466.787 91.6346 468.024 84.6197 464.46 79.5302L305.293 -147.785Z" fill="url(#paint4_linear_4023_63847)"/>
<path d="M1221.02 -121.218C1218.01 -125.516 1212.08 -126.56 1207.78 -123.551C1203.49 -120.542 1202.44 -114.618 1205.45 -110.32L1423.98 201.777C1426.99 206.075 1432.92 207.119 1437.22 204.11C1441.51 201.1 1442.56 195.177 1439.55 190.879L1221.02 -121.218Z" fill="url(#paint5_linear_4023_63847)"/>
<path opacity="0.312783" d="M547.346 524.961C546.56 523.878 545.044 523.638 543.961 524.425C542.878 525.211 542.638 526.727 543.425 527.81L682.232 718.861C683.019 719.944 684.535 720.184 685.617 719.398C686.7 718.611 686.94 717.095 686.154 716.012L547.346 524.961Z" fill="url(#paint6_linear_4023_63847)"/>
<path opacity="0.312783" d="M693.346 882.961C692.56 881.878 691.044 881.638 689.961 882.425C688.878 883.211 688.638 884.727 689.425 885.81L828.232 1076.86C829.019 1077.94 830.535 1078.18 831.617 1077.4C832.7 1076.61 832.94 1075.1 832.154 1074.01L693.346 882.961Z" fill="url(#paint7_linear_4023_63847)"/>
<path opacity="0.312783" d="M878.346 670.961C877.56 669.878 876.044 669.638 874.961 670.425C873.878 671.211 873.638 672.727 874.425 673.81L1013.23 864.861C1014.02 865.944 1015.53 866.184 1016.62 865.398C1017.7 864.611 1017.94 863.095 1017.15 862.012L878.346 670.961Z" fill="url(#paint8_linear_4023_63847)"/>
<path d="M494.346 494.961C493.56 493.878 492.044 493.638 490.961 494.425C489.878 495.211 489.638 496.727 490.425 497.81L546.355 574.79C547.141 575.873 548.657 576.113 549.74 575.326C550.823 574.539 551.063 573.024 550.276 571.941L494.346 494.961Z" fill="url(#paint9_linear_4023_63847)"/>
<path opacity="0.169044" d="M7.55613 125.484C6.44429 123.953 4.3024 123.614 2.77209 124.726C1.24177 125.838 0.902527 127.98 2.01437 129.51L42.0719 184.645C43.1838 186.175 45.3257 186.514 46.856 185.402C48.3863 184.29 48.7255 182.149 47.6137 180.618L7.55613 125.484Z" fill="url(#paint10_linear_4023_63847)"/>
<path opacity="0.312783" d="M684.824 580.236C683.525 578.449 681.024 578.053 679.237 579.351C677.449 580.65 677.053 583.151 678.352 584.938L815.306 773.439C816.604 775.227 819.106 775.623 820.893 774.324C822.68 773.026 823.076 770.524 821.778 768.737L684.824 580.236Z" fill="url(#paint11_linear_4023_63847)"/>
<path d="M-90.6536 318.961C-91.4404 317.878 -92.9559 317.638 -94.0388 318.425C-95.1216 319.211 -95.3617 320.727 -94.5749 321.81L44.2323 512.861C45.019 513.944 46.5346 514.184 47.6175 513.398C48.7003 512.611 48.9403 511.095 48.1536 510.012L-90.6536 318.961Z" fill="url(#paint12_linear_4023_63847)"/>
<path opacity="0.143965" d="M-120.766 321.854C-122.714 319.173 -126.466 318.579 -129.147 320.527C-131.828 322.474 -132.422 326.227 -130.474 328.908L4.12836 514.172C6.07611 516.853 9.82833 517.448 12.5092 515.5C15.19 513.552 15.7843 509.8 13.8366 507.119L-120.766 321.854Z" fill="url(#paint13_linear_4023_63847)"/>
<path d="M46.0115 626.782C43.0021 622.484 37.0784 621.44 32.7806 624.449C28.4827 627.458 27.4382 633.382 30.4476 637.68L248.98 949.777C251.99 954.075 257.913 955.119 262.211 952.11C266.509 949.1 267.553 943.177 264.544 938.879L46.0115 626.782Z" fill="url(#paint14_linear_4023_63847)"/>
</g>
<g filter="url(#filter0_bd_4023_63847)">
<mask id="path-16-inside-1_4023_63847" fill="white">
<path fill-rule="evenodd" clip-rule="evenodd" d="M323.079 631H236C219.984 631 207 643.984 207 660V734.4C207 750.416 219.984 763.4 236 763.4H323.079C339.095 763.4 352.079 750.416 352.079 734.4V660C352.079 643.984 339.095 631 323.079 631ZM236 630C219.431 630 206 643.431 206 660V734.4C206 750.969 219.431 764.4 236 764.4H323.079C339.648 764.4 353.079 750.969 353.079 734.4V660C353.079 643.431 339.648 630 323.079 630H236Z"/>
</mask>
<path fill-rule="evenodd" clip-rule="evenodd" d="M323.079 631H236C219.984 631 207 643.984 207 660V734.4C207 750.416 219.984 763.4 236 763.4H323.079C339.095 763.4 352.079 750.416 352.079 734.4V660C352.079 643.984 339.095 631 323.079 631ZM236 630C219.431 630 206 643.431 206 660V734.4C206 750.969 219.431 764.4 236 764.4H323.079C339.648 764.4 353.079 750.969 353.079 734.4V660C353.079 643.431 339.648 630 323.079 630H236Z" fill="url(#paint15_linear_4023_63847)" shape-rendering="crispEdges"/>
<path d="M236 632H323.079V630H236V632ZM208 660C208 644.536 220.536 632 236 632V630C219.431 630 206 643.431 206 660H208ZM208 734.4V660H206V734.4H208ZM236 762.4C220.536 762.4 208 749.864 208 734.4H206C206 750.969 219.431 764.4 236 764.4V762.4ZM323.079 762.4H236V764.4H323.079V762.4ZM351.079 734.4C351.079 749.864 338.543 762.4 323.079 762.4V764.4C339.648 764.4 353.079 750.969 353.079 734.4H351.079ZM351.079 660V734.4H353.079V660H351.079ZM323.079 632C338.543 632 351.079 644.536 351.079 660H353.079C353.079 643.431 339.648 630 323.079 630V632ZM207 660C207 643.984 219.984 631 236 631V629C218.879 629 205 642.879 205 660H207ZM207 734.4V660H205V734.4H207ZM236 763.4C219.984 763.4 207 750.416 207 734.4H205C205 751.521 218.879 765.4 236 765.4V763.4ZM323.079 763.4H236V765.4H323.079V763.4ZM352.079 734.4C352.079 750.416 339.095 763.4 323.079 763.4V765.4C340.2 765.4 354.079 751.521 354.079 734.4H352.079ZM352.079 660V734.4H354.079V660H352.079ZM323.079 631C339.095 631 352.079 643.984 352.079 660H354.079C354.079 642.879 340.2 629 323.079 629V631ZM236 631H323.079V629H236V631Z" fill="url(#paint16_linear_4023_63847)" mask="url(#path-16-inside-1_4023_63847)"/>
</g>
<g filter="url(#filter1_bd_4023_63847)">
<path fill-rule="evenodd" clip-rule="evenodd" d="M328.079 801H241C224.984 801 212 813.984 212 830V904.4C212 920.416 224.984 933.4 241 933.4H328.079C344.095 933.4 357.079 920.416 357.079 904.4V830C357.079 813.984 344.095 801 328.079 801ZM241 800C224.431 800 211 813.431 211 830V904.4C211 920.969 224.431 934.4 241 934.4H328.079C344.648 934.4 358.079 920.969 358.079 904.4V830C358.079 813.431 344.648 800 328.079 800H241Z" fill="url(#paint17_linear_4023_63847)" shape-rendering="crispEdges"/>
</g>
</g>
<defs>
<filter id="filter0_bd_4023_63847" x="136" y="575" width="287.078" height="274.4" filterUnits="userSpaceOnUse" color-interpolation-filters="sRGB">
<feFlood flood-opacity="0" result="BackgroundImageFix"/>
<feGaussianBlur in="BackgroundImage" stdDeviation="5"/>
<feComposite in2="SourceAlpha" operator="in" result="effect1_backgroundBlur_4023_63847"/>
<feColorMatrix in="SourceAlpha" type="matrix" values="0 0 0 0 0 0 0 0 0 0 0 0 0 0 0 0 0 0 127 0" result="hardAlpha"/>
<feOffset dy="15"/>
<feGaussianBlur stdDeviation="35"/>
<feComposite in2="hardAlpha" operator="out"/>
<feColorMatrix type="matrix" values="0 0 0 0 0 0 0 0 0 0 0 0 0 0 0 0 0 0 0.07 0"/>
<feBlend mode="normal" in2="effect1_backgroundBlur_4023_63847" result="effect2_dropShadow_4023_63847"/>
<feBlend mode="normal" in="SourceGraphic" in2="effect2_dropShadow_4023_63847" result="shape"/>
</filter>
<filter id="filter1_bd_4023_63847" x="141" y="745" width="287.078" height="274.4" filterUnits="userSpaceOnUse" color-interpolation-filters="sRGB">
<feFlood flood-opacity="0" result="BackgroundImageFix"/>
<feGaussianBlur in="BackgroundImage" stdDeviation="5"/>
<feComposite in2="SourceAlpha" operator="in" result="effect1_backgroundBlur_4023_63847"/>
<feColorMatrix in="SourceAlpha" type="matrix" values="0 0 0 0 0 0 0 0 0 0 0 0 0 0 0 0 0 0 127 0" result="hardAlpha"/>
<feOffset dy="15"/>
<feGaussianBlur stdDeviation="35"/>
<feComposite in2="hardAlpha" operator="out"/>
<feColorMatrix type="matrix" values="0 0 0 0 0 0 0 0 0 0 0 0 0 0 0 0 0 0 0.07 0"/>
<feBlend mode="normal" in2="effect1_backgroundBlur_4023_63847" result="effect2_dropShadow_4023_63847"/>
<feBlend mode="normal" in="SourceGraphic" in2="effect2_dropShadow_4023_63847" result="shape"/>
</filter>
<linearGradient id="paint0_linear_4023_63847" x1="-8.91125" y1="-359.346" x2="16.1949" y2="-376.489" gradientUnits="userSpaceOnUse">
<stop stop-color="#0C63E7"/>
<stop offset="1" stop-color="#00AAE5"/>
</linearGradient>
<linearGradient id="paint1_linear_4023_63847" x1="104.811" y1="-694.523" x2="146.917" y2="-723.609" gradientUnits="userSpaceOnUse">
<stop stop-color="#3DCCC7"/>
<stop offset="1" stop-color="#9CEAEF"/>
</linearGradient>
<linearGradient id="paint2_linear_4023_63847" x1="776.697" y1="-52.8813" x2="816.803" y2="-77.604" gradientUnits="userSpaceOnUse">
<stop stop-color="#3BB8D9"/>
<stop offset="1" stop-color="#155899"/>
</linearGradient>
<linearGradient id="paint3_linear_4023_63847" x1="-115.525" y1="-602.398" x2="-20.4611" y2="-665.261" gradientUnits="userSpaceOnUse">
<stop stop-color="#0C63E7"/>
<stop offset="1" stop-color="#00AAE5"/>
</linearGradient>
<linearGradient id="paint4_linear_4023_63847" x1="-659.864" y1="-1386.59" x2="-460.673" y2="-1522.88" gradientUnits="userSpaceOnUse">
<stop stop-color="#308CEC"/>
<stop offset="0.946455" stop-color="#53DCE7"/>
<stop offset="1" stop-color="#71EDB3"/>
</linearGradient>
<linearGradient id="paint5_linear_4023_63847" x1="842.351" y1="-680.816" x2="902.179" y2="-721.223" gradientUnits="userSpaceOnUse">
<stop stop-color="#0C63E7"/>
<stop offset="1" stop-color="#00AAE5"/>
</linearGradient>
<linearGradient id="paint6_linear_4023_63847" x1="312.259" y1="196.709" x2="327.238" y2="185.989" gradientUnits="userSpaceOnUse">
<stop stop-color="#0C63E7"/>
<stop offset="1" stop-color="#00AAE5"/>
</linearGradient>
<linearGradient id="paint7_linear_4023_63847" x1="458.259" y1="554.709" x2="473.238" y2="543.989" gradientUnits="userSpaceOnUse">
<stop stop-color="#0C63E7"/>
<stop offset="1" stop-color="#00AAE5"/>
</linearGradient>
<linearGradient id="paint8_linear_4023_63847" x1="643.259" y1="342.709" x2="658.238" y2="331.989" gradientUnits="userSpaceOnUse">
<stop stop-color="#0C63E7"/>
<stop offset="1" stop-color="#00AAE5"/>
</linearGradient>
<linearGradient id="paint9_linear_4023_63847" x1="397.269" y1="356.663" x2="412.353" y2="346.095" gradientUnits="userSpaceOnUse">
<stop stop-color="#0C63E7"/>
<stop offset="1" stop-color="#00AAE5"/>
</linearGradient>
<linearGradient id="paint10_linear_4023_63847" x1="-64.7199" y1="19.3873" x2="-43.1861" y2="4.78404" gradientUnits="userSpaceOnUse">
<stop stop-color="#0C63E7"/>
<stop offset="1" stop-color="#00AAE5"/>
</linearGradient>
<linearGradient id="paint11_linear_4023_63847" x1="450.258" y1="249.657" x2="475.062" y2="232.079" gradientUnits="userSpaceOnUse">
<stop stop-color="#0C63E7"/>
<stop offset="1" stop-color="#00AAE5"/>
</linearGradient>
<linearGradient id="paint12_linear_4023_63847" x1="-325.741" y1="-9.29115" x2="-310.762" y2="-20.0113" gradientUnits="userSpaceOnUse">
<stop stop-color="#0C63E7"/>
<stop offset="1" stop-color="#00AAE5"/>
</linearGradient>
<linearGradient id="paint13_linear_4023_63847" x1="-354.67" y1="-11.6784" x2="-317.314" y2="-37.8234" gradientUnits="userSpaceOnUse">
<stop stop-color="#0C63E7"/>
<stop offset="1" stop-color="#00AAE5"/>
</linearGradient>
<linearGradient id="paint14_linear_4023_63847" x1="-332.653" y1="67.1841" x2="-272.825" y2="26.7772" gradientUnits="userSpaceOnUse">
<stop stop-color="#0C63E7"/>
<stop offset="1" stop-color="#00AAE5"/>
</linearGradient>
<linearGradient id="paint15_linear_4023_63847" x1="279.54" y1="630" x2="279.54" y2="764.4" gradientUnits="userSpaceOnUse">
<stop offset="0.21875" stop-color="#E8E8E8" stop-opacity="0"/>
<stop offset="1" stop-color="#EDEDED"/>
</linearGradient>
<linearGradient id="paint16_linear_4023_63847" x1="279.54" y1="630" x2="279.54" y2="764.4" gradientUnits="userSpaceOnUse">
<stop stop-color="#ECECEC" stop-opacity="0.12"/>
<stop offset="0.713542" stop-color="#E3E3E3"/>
</linearGradient>
<linearGradient id="paint17_linear_4023_63847" x1="284.54" y1="800" x2="284.54" y2="934.4" gradientUnits="userSpaceOnUse">
<stop offset="0.0885417" stop-color="#F0F0F0" stop-opacity="0"/>
<stop offset="0.619792" stop-color="#F0F0F0"/>
</linearGradient>
<clipPath id="clip0_4023_63847">
<rect width="1447" height="1000" fill="white" transform="translate(-6)"/>
</clipPath>
</defs>
</svg>
