<svg width="32" height="46" viewBox="0 0 32 46" fill="none" xmlns="http://www.w3.org/2000/svg">
<g filter="url(#filter0_d_4060_47489)">
<rect x="7" y="13" width="2" height="1" fill="#A3A3A3"/>
<rect x="23" y="13" width="2" height="1" fill="#A3A3A3"/>
<path d="M23 6C23 5.21207 22.8189 4.43185 22.4672 3.7039C22.1154 2.97595 21.5998 2.31451 20.9497 1.75736C20.2997 1.20021 19.5281 0.758251 18.6788 0.456723C17.8295 0.155195 16.9193 -3.44416e-08 16 0C15.0807 3.44416e-08 14.1705 0.155195 13.3212 0.456723C12.4719 0.758251 11.7003 1.20021 11.0503 1.75736C10.4002 2.31451 9.88463 2.97595 9.53284 3.7039C9.18106 4.43185 9 5.21207 9 6L16 6H23Z" fill="#00AAE5"/>
<path d="M9 15C9 16.0506 9.18106 17.0909 9.53284 18.0615C9.88463 19.0321 10.4002 19.914 11.0503 20.6569C11.7003 21.3997 12.4719 21.989 13.3212 22.391C14.1705 22.7931 15.0807 23 16 23C16.9193 23 17.8295 22.7931 18.6788 22.391C19.5281 21.989 20.2997 21.3997 20.9497 20.6569C21.5998 19.914 22.1154 19.0321 22.4672 18.0615C22.8189 17.0909 23 16.0506 23 15L16 15H9Z" fill="#00AAE5"/>
<rect x="9" y="6" width="14" height="7" fill="#00AAE5"/>
<rect x="8" y="13" width="16" height="2" rx="1" fill="white"/>
<path d="M28 13C28 15.1012 27.6896 17.1817 27.0866 19.1229C26.4835 21.0641 25.5996 22.828 24.4853 24.3137C23.371 25.7994 22.0481 26.978 20.5922 27.7821C19.1363 28.5861 17.5759 29 16 29C14.4241 29 12.8637 28.5861 11.4078 27.7821C9.95189 26.978 8.62902 25.7994 7.51472 24.3137C6.40041 22.828 5.5165 21.0641 4.91345 19.1229C4.31039 17.1817 4 15.1012 4 13L7 13C7 14.5991 7.10341 16.1826 7.56237 17.66C8.02134 19.1374 8.69406 20.4798 9.54212 21.6105C10.3902 22.7413 11.397 23.6382 12.505 24.2502C13.6131 24.8621 14.8007 25.1771 16 25.1771C17.1993 25.1771 18.3869 24.8621 19.495 24.2502C20.603 23.6382 21.6098 22.7413 22.4579 21.6105C23.3059 20.4798 23.9787 19.1374 24.4376 17.66C24.8966 16.1826 25.1328 14.5991 25.1328 13H28Z" fill="white"/>
<rect x="4" y="13" width="3" height="1" fill="black"/>
<rect x="25" y="13" width="3" height="1" fill="black"/>
<rect x="15.5" y="29.5" width="1" height="3" fill="#C4C4C4" stroke="black"/>
<rect x="11" y="33" width="10" height="3" fill="#007AFF"/>
<rect x="7" y="35" width="18" height="3" fill="white"/>
</g>
<defs>
<filter id="filter0_d_4060_47489" x="0" y="0" width="32" height="46" filterUnits="userSpaceOnUse" color-interpolation-filters="sRGB">
<feFlood flood-opacity="0" result="BackgroundImageFix"/>
<feColorMatrix in="SourceAlpha" type="matrix" values="0 0 0 0 0 0 0 0 0 0 0 0 0 0 0 0 0 0 127 0" result="hardAlpha"/>
<feOffset dy="4"/>
<feGaussianBlur stdDeviation="2"/>
<feComposite in2="hardAlpha" operator="out"/>
<feColorMatrix type="matrix" values="0 0 0 0 0 0 0 0 0 0 0 0 0 0 0 0 0 0 0.25 0"/>
<feBlend mode="normal" in2="BackgroundImageFix" result="effect1_dropShadow_4060_47489"/>
<feBlend mode="normal" in="SourceGraphic" in2="effect1_dropShadow_4060_47489" result="shape"/>
</filter>
</defs>
</svg>
